<svg xmlns="http://www.w3.org/2000/svg" xmlns:xlink="http://www.w3.org/1999/xlink" width="665.161" height="726.503" viewBox="0 0 665.161 726.503">
  <defs>
    <linearGradient id="linear-gradient" x1="0.5" y1="1" x2="0.5" y2="0.008" gradientUnits="objectBoundingBox">
      <stop offset="0" stop-color="#e2e2df" stop-opacity="0"/>
      <stop offset="1" stop-color="#0f0f0e"/>
    </linearGradient>
  </defs>
  <g id="Group_1" data-name="Group 1" transform="translate(34.531 296.089)">
    <path id="Path_8" data-name="Path 8" d="M420.932,191.612c18.01,22.086,16.219,42.528,4.486,67.649C359.594,400.178,295.8,542.04,231.362,683.6c-2,4.405-3.454,9.063-6.008,15.855H691.715C595.532,487.7,500.405,278.287,402.871,63.581c-26.137,57.134-50.125,109.292-73.9,161.557Q220.88,462.83,112.536,700.421c-6.11,13.306-7.834,39.873-31.8,28.878-22.425-10.292-4.168-28.484,1.522-41.057Q229.913,361.882,379.283,36.3c4.749-10.358,15.749-17.848,23.836-26.678,7.869,8.765,18.505,16.26,23.2,26.481Q577.375,365.046,727.239,694.544c13.767,30.163,7.763,40.192-25.267,40.222q-243.913.212-487.821.02c-32.024-.025-38.356-9.321-25.3-38.2Q302.162,446.031,416.046,195.739C416.658,194.393,418.5,193.61,420.932,191.612Z" transform="translate(-103.888 -304.963)" stroke="rgba(185,186,177,0)" stroke-miterlimit="10" stroke-width="1" fill="url(#linear-gradient)"/>
    <path id="Path_2" data-name="Path 2" d="M139.271,45.6c3.561,4.367,3.207,8.409.887,13.376-13.015,27.863-25.629,55.913-38.37,83.9-.4.871-.683,1.792-1.188,3.135h92.212C173.794,104.148,154.985,62.741,135.7,20.288c-5.168,11.3-9.911,21.61-14.611,31.944q-21.374,47-42.8,93.976c-1.208,2.631-1.549,7.884-6.287,5.71-4.434-2.035-.824-5.632.3-8.118Q101.5,79.27,131.036,14.893c.939-2.048,3.114-3.529,4.713-5.275,1.556,1.733,3.659,3.215,4.587,5.236Q170.2,79.9,199.836,145.046c2.722,5.964,1.535,7.947-5,7.953q-48.228.042-96.455,0c-6.332-.005-7.584-1.843-5-7.554q22.4-49.541,44.922-99.03C138.426,46.153,138.791,46,139.271,45.6Z" fill="#e2e2df" stroke="#e2e2df" stroke-miterlimit="10" stroke-width="1"/>
    <path id="Path_3" data-name="Path 3" d="M350.46,134.352l8.255,7.325c8.339-11.431,16.374-22.422,24.383-33.431,6.365-8.749,12.893-17.39,18.924-26.365,1.8-2.672,2.643-6.248,3.052-9.519.512-4.1-.2-8.352.28-12.46.213-1.812,2.075-3.43,3.189-5.136.886,1.727,2.534,3.448,2.544,5.18.162,26.321.109,52.643.106,78.964v7.372H423.31c.076-1.651.238-3.561.239-5.471.009-26.322-.034-52.644.037-78.965.007-2.6-1.126-6.784,2.834-6.869,4.66-.1,3.006,4.365,3.017,6.995.11,28.153.076,56.307.077,84.461,0,5.981-.55,6.536-6.552,6.578-3.332.023-6.664.008-10,0-7.248-.01-7.754-.5-7.759-7.555q-.016-25.988-.025-51.976a7.056,7.056,0,0,0-.975-4.031L364.232,144.3c12.274,5.444,23.627,4.751,34.819-1.2,1.506,6.081,1.437,6.224-3.749,8.248-23.891,9.324-51.063-5-59.463-31.354-8.747-27.435,6.794-57.491,33.289-64.335a47.112,47.112,0,0,1,25.633.425c7.193,2.134,8.8,7.049,4.259,13.131Q376.15,99.83,353.241,130.41C352.447,131.472,351.71,132.577,350.46,134.352Zm44.847-70.28c-12.843-7.691-32.776-3.182-44.521,9.78-13.244,14.617-15.163,39.75-3.852,54.945Z" fill="#e2e2df" stroke="#e2e2df" stroke-miterlimit="10" stroke-width="1"/>
    <path id="Path_4" data-name="Path 4" d="M459.5,77.911c-3.938,8.414-3.534,10.241,3.13,15.736q21.379,17.628,42.713,35.311c.875.725,1.682,1.532,3.023,2.761l-4.306,4.657c-11.487-9.484-22.255-18.365-33.011-27.26-5.9-4.88-11.642-9.971-17.736-14.6-3.1-2.352-3.856-5-3.524-8.609,1.34-14.554,12.871-27.117,28.943-30.405,16.49-3.373,30.981.767,41.315,14.477,3.417,4.533,4.7,10.809,6.295,16.475.354,1.253-2.086,3.295-3.24,4.973-1.3-1.389-3.586-2.678-3.739-4.185-1.348-13.259-8.947-21.33-21.122-24.983-13.339-4-25.214-.882-35.293,9.4,17.943,15.105,35.64,30,53.334,44.9q2.29,1.929,4.562,3.882c6.342,5.444,6.346,5.472,2.637,12.805-6.777,13.4-22.967,22.165-38.156,20.658-17.3-1.715-30.29-11.435-34.457-25.9a15.345,15.345,0,0,1-.872-6.345c.272-1.708,1.608-4.223,2.951-4.579,2.758-.732,4.018,1.349,4.109,4.163.24,7.419,3.607,13.381,8.971,18.287,15.049,13.765,41.018,9.611,50.477-7.955,1.653-3.071,1.686-5-1.357-7.511-18.241-15.029-36.262-30.323-54.365-45.52A8.023,8.023,0,0,0,459.5,77.911Z" fill="#e2e2df" stroke="#e2e2df" stroke-miterlimit="10" stroke-width="1"/>
    <path id="Path_5" data-name="Path 5" d="M303.521,22.331H291.2v5.445q0,58.494,0,116.987c0,1.334.315,2.792-.123,3.966-.489,1.309-1.672,2.358-2.553,3.521a19.511,19.511,0,0,1-3.227-3.127c-.463-.7-.111-1.944-.111-2.943q0-61.242.006-122.486c0-6.96.367-7.32,7.351-7.337,3.5-.008,7,0,10.5,0,5.964,0,6.788.818,6.8,7q.03,17.748.006,35.5,0,43.245,0,86.49c0,1,.33,2.176-.082,2.961a29.071,29.071,0,0,1-2.973,3.985c-1.068-1.384-2.469-2.634-3.1-4.2-.523-1.295-.153-2.957-.154-4.456q-.016-58.494-.026-116.987Z" fill="#e2e2df" stroke="#e2e2df" stroke-miterlimit="10" stroke-width="1"/>
    <path id="Path_6" data-name="Path 6" d="M218.548,53.725c0-2.276-.078-5.731.026-9.18.075-2.488-1.044-6.183,2.865-6.278,3.946-.1,3.053,3.6,3.056,6.094q.063,40.215.022,80.431c0,1.166-.022,2.332.007,3.5.178,7.137,2.6,12.995,9.376,16.347,6.794,3.362,12.813,1.555,18.691-2.5,1.277-.881,3.335-.63,5.034-.9-.452,1.835-.309,4.271-1.455,5.4-5.893,5.826-13.071,7.836-21.078,5.306-8.87-2.8-14.039-9.168-16.022-18.121a32.647,32.647,0,0,1-.544-6.947q-.062-28.476-.024-56.952V62.855c-2.744-2.3-8.339.5-7.776-4.679C210.894,56.631,215.2,55.535,218.548,53.725Z" fill="#e2e2df" stroke="#e2e2df" stroke-miterlimit="10" stroke-width="1"/>
    <path id="Path_7" data-name="Path 7" d="M242.874,61.644V67.66q0,32.707-.033,65.417c-.005,2.127.906,5.438-2.662,5.143-1.221-.1-3.134-3.186-3.144-4.917-.189-33.291-.149-66.582-.127-99.874,0-2.284-.287-5.347,3.1-4.909,1.132.146,2.633,3.074,2.706,4.784.305,7.112.128,14.244.128,22.065,4.186,0,8-.331,11.7.152,1.631.212,3.047,2.077,4.56,3.192-1.49.977-2.9,2.613-4.487,2.8C251.013,61.933,247.325,61.644,242.874,61.644Z" fill="#e2e2df" stroke="#e2e2df" stroke-miterlimit="10" stroke-width="1"/>
  </g>
</svg>
