<svg xmlns="http://www.w3.org/2000/svg" xmlns:xlink="http://www.w3.org/1999/xlink" width="360" height="495.926" viewBox="0 0 360 495.926">
  <defs>
    <style>
      .cls-1 {
        fill: url(#linear-gradient);
      }

      .cls-2 {
        fill: #e2e2df;
        stroke: #e2e2df;
        stroke-miterlimit: 10;
      }
    </style>
    <linearGradient id="linear-gradient" x1="0.5" x2="0.5" y2="1" gradientUnits="objectBoundingBox">
      <stop offset="0" stop-color="#0f0f0e"/>
      <stop offset="1" stop-color="#e2e2df" stop-opacity="0"/>
    </linearGradient>
  </defs>
  <g id="Group_1" data-name="Group 1" transform="translate(9.786 142.026)">
    <path id="Path_101" data-name="Path 101" class="cls-1" d="M260.113,134.064c9.76,15.1,8.79,29.081,2.431,46.258C226.872,276.68,192.3,373.684,157.38,470.481c-1.085,3.012-1.872,6.2-3.256,10.842H406.858c-52.124-144.794-103.676-287.991-156.532-434.8-14.164,39.068-27.164,74.733-40.046,110.471Q151.7,319.521,92.985,481.983c-3.311,9.1-4.246,27.265-17.231,19.747-12.153-7.037-2.259-19.477.825-28.074q80.016-223.162,160.964-445.8c2.574-7.083,8.535-12.2,12.918-18.242,4.265,5.993,10.029,11.118,12.572,18.108q81.862,224.931,163.077,450.239c7.461,20.625,4.207,27.483-13.693,27.5q-132.183.145-264.364.014c-17.355-.017-20.786-6.374-13.709-26.124q61.4-171.324,123.122-342.472C257.8,135.966,258.8,135.43,260.113,134.064Z" transform="translate(-79.64 -151.644)"/>
    <path id="Path_2" data-name="Path 2" class="cls-2" d="M100.375,25.44c1.566,1.92,1.41,3.7.39,5.881C95.042,43.572,89.5,55.9,83.894,68.211c-.174.383-.3.788-.522,1.378h40.543L98.8,14.309c-2.272,4.967-4.358,9.5-6.424,14.045q-9.4,20.664-18.816,41.319c-.531,1.157-.681,3.466-2.764,2.511-1.95-.895-.362-2.476.132-3.569Q83.768,40.242,96.754,11.937a10.629,10.629,0,0,1,2.072-2.319,10.775,10.775,0,0,1,2.017,2.3Q113.975,40.517,127,69.162c1.2,2.622.675,3.494-2.2,3.5q-21.2.018-42.409,0c-2.784,0-3.335-.81-2.2-3.321Q90.049,47.558,99.95,25.8C100,25.682,100.164,25.613,100.375,25.44Z" transform="translate(0 48.995)"/>
    <path id="Path_3" data-name="Path 3" class="cls-2" d="M340.9,89.384l3.629,3.221c3.666-5.026,7.2-9.858,10.721-14.7,2.8-3.847,5.669-7.646,8.32-11.592a9.862,9.862,0,0,0,1.342-4.185c.225-1.8-.09-3.672.123-5.478.094-.8.912-1.508,1.4-2.258.39.759,1.114,1.516,1.119,2.278.071,11.573.048,23.146.047,34.719v3.241h5.328c.033-.726.1-1.566.105-2.405,0-11.573-.015-23.146.016-34.719,0-1.145-.5-2.983,1.246-3.02,2.049-.044,1.322,1.919,1.326,3.076.048,12.378.033,24.757.034,37.135,0,2.63-.242,2.874-2.881,2.892-1.465.01-2.93,0-4.395,0-3.187,0-3.409-.22-3.411-3.322q-.007-11.426-.011-22.853a3.1,3.1,0,0,0-.429-1.772L346.952,93.76a16.514,16.514,0,0,0,15.309-.526c.662,2.674.632,2.737-1.648,3.626-10.5,4.1-22.451-2.2-26.144-13.786C330.622,71.012,337.455,57.8,349.1,54.788a20.714,20.714,0,0,1,11.27.187c3.163.938,3.871,3.1,1.873,5.773q-10.056,13.457-20.128,26.9C341.77,88.117,341.446,88.6,340.9,89.384Zm19.718-30.9c-5.647-3.382-14.411-1.4-19.575,4.3-5.823,6.427-6.667,17.477-1.694,24.158Z" transform="translate(-147.667 24.072)"/>
    <path id="Path_4" data-name="Path 4" class="cls-2" d="M454.014,64.732c-1.731,3.7-1.554,4.5,1.376,6.919q9.4,7.751,18.78,15.525c.385.319.74.674,1.329,1.214l-1.893,2.048c-5.051-4.17-9.785-8.075-14.514-11.986-2.595-2.146-5.119-4.384-7.8-6.418a3.776,3.776,0,0,1-1.549-3.785c.589-6.4,5.659-11.923,12.726-13.368,7.25-1.483,13.622.337,18.165,6.365,1.5,1.993,2.066,4.752,2.768,7.244.156.551-.917,1.449-1.424,2.187-.571-.611-1.577-1.177-1.644-1.84-.593-5.83-3.934-9.378-9.287-10.984-5.865-1.76-11.086-.388-15.518,4.135,7.889,6.641,15.67,13.192,23.45,19.742q1.007.848,2.006,1.707c2.788,2.394,2.79,2.406,1.159,5.63a17.533,17.533,0,0,1-16.776,9.083c-7.606-.754-13.318-5.028-15.15-11.39a6.747,6.747,0,0,1-.383-2.79c.12-.751.707-1.857,1.3-2.013,1.213-.322,1.767.593,1.807,1.83a11.125,11.125,0,0,0,3.944,8.04c6.617,6.052,18.035,4.226,22.194-3.5.727-1.35.741-2.2-.6-3.3-8.02-6.608-15.943-13.332-23.9-20.014A3.528,3.528,0,0,0,454.014,64.732Z" transform="translate(-212.845 23.908)"/>
    <path id="Path_5" data-name="Path 5" class="cls-2" d="M293.18,18.981h-5.415v2.394q0,25.718,0,51.436a5.245,5.245,0,0,1-.054,1.744A6.908,6.908,0,0,1,286.59,76.1a8.579,8.579,0,0,1-1.419-1.375c-.2-.307-.049-.855-.049-1.294q0-26.927,0-53.854c0-3.06.161-3.218,3.232-3.226,1.539,0,3.078,0,4.617,0,2.622,0,2.985.36,2.989,3.076q.013,7.8,0,15.607,0,19.014,0,38.028c0,.44.145.957-.036,1.3a12.786,12.786,0,0,1-1.307,1.752,8.769,8.769,0,0,1-1.363-1.844,5.549,5.549,0,0,1-.068-1.959q-.007-25.718-.011-51.436Z" transform="translate(-120.589 45.222)"/>
    <path id="Path_6" data-name="Path 6" class="cls-2" d="M214.143,45.062c0-1-.034-2.52.011-4.036.033-1.094-.459-2.719,1.26-2.76,1.735-.042,1.342,1.584,1.344,2.679q.028,17.682.01,35.364c0,.513-.01,1.025,0,1.538.078,3.138,1.143,5.714,4.122,7.187s5.634.684,8.218-1.1a5.725,5.725,0,0,1,2.213-.4c-.2.807-.136,1.878-.64,2.376a8.744,8.744,0,0,1-9.267,2.333,10.047,10.047,0,0,1-7.044-7.967,14.354,14.354,0,0,1-.239-3.054q-.027-12.52-.011-25.04V49.077c-1.206-1.011-3.666.222-3.419-2.057C210.778,46.34,212.671,45.858,214.143,45.062Z" transform="translate(-78.912 32.944)"/>
    <path id="Path_7" data-name="Path 7" class="cls-2" d="M239.52,43.06v2.645q0,14.381-.015,28.762c0,.935.4,2.391-1.17,2.261-.537-.044-1.378-1.4-1.382-2.162-.083-14.637-.066-29.275-.056-43.912,0-1-.126-2.351,1.364-2.158.5.064,1.158,1.352,1.19,2.1.134,3.127.056,6.263.056,9.7a41.018,41.018,0,0,1,5.144.067c.717.093,1.34.913,2,1.4-.655.43-1.277,1.149-1.973,1.23A46.746,46.746,0,0,1,239.52,43.06Z" transform="translate(-93.594 38.428)"/>
  </g>
</svg>
