<svg xmlns="http://www.w3.org/2000/svg" viewBox="0 0 39.05 5.88"><defs><style>.cls-1{fill:#98f5ff;}.cls-2,.cls-3{fill:none;stroke:#1d1d1b;stroke-miterlimit:10;}.cls-2{stroke-width:0.5px;}</style></defs><g id="Layer_2" data-name="Layer 2"><g id="Layer_1-2" data-name="Layer 1"><g id="Page_1" data-name="Page 1"><g id="Page_1-2" data-name="Page 1"><polygon class="cls-1" points="31.91 0.5 28.38 5.38 21.31 5.38 24.84 0.5 31.91 0.5"/><polygon class="cls-1" points="24.84 0.5 21.31 5.38 14.24 5.38 17.78 0.5 24.84 0.5"/><polygon class="cls-1" points="17.78 0.5 14.24 5.38 7.18 5.38 10.71 0.5 17.78 0.5"/><polygon class="cls-1" points="10.71 0.5 7.18 5.38 0.19 5.38 3.64 0.5 10.71 0.5"/><line class="cls-2" x1="10.71" y1="0.5" x2="7.18" y2="5.38"/><line class="cls-2" x1="17.78" y1="0.5" x2="14.25" y2="5.38"/><line class="cls-2" x1="24.84" y1="0.5" x2="21.31" y2="5.38"/><line class="cls-2" x1="31.91" y1="0.5" x2="28.38" y2="5.38"/><polyline class="cls-3" points="39.05 0.5 38.87 0.5 35.41 5.38"/><polyline class="cls-3" points="3.39 0.5 3.64 0.5 10.71 0.5 17.78 0.5 24.84 0.5 31.91 0.5 38.87 0.5"/><polyline class="cls-3" points="0 5.38 0.19 5.38 3.64 0.5"/><polyline class="cls-3" points="35.71 5.38 35.41 5.38 28.38 5.38 21.31 5.38 14.24 5.38 7.18 5.38 0.19 5.38"/></g></g></g></g></svg>