<svg xmlns="http://www.w3.org/2000/svg" viewBox="0 0 39.02 5.93"><defs><style>.cls-1{fill:#ffaa10;}.cls-2,.cls-3{fill:none;stroke:#1d1d1b;stroke-miterlimit:10;}.cls-2{stroke-width:0.5px;}</style></defs><g id="Layer_2" data-name="Layer 2"><g id="Layer_1-2" data-name="Layer 1"><g id="Page_1" data-name="Page 1"><g id="Page_4" data-name="Page 4"><polygon class="cls-1" points="31.89 0.5 28.36 5.43 21.3 5.43 24.83 0.5 31.89 0.5"/><polygon class="cls-1" points="24.83 0.5 21.3 5.43 14.23 5.43 17.77 0.5 24.83 0.5"/><polygon class="cls-1" points="17.77 0.5 14.23 5.43 7.17 5.43 10.71 0.5 17.77 0.5"/><polygon class="cls-1" points="10.71 0.5 7.17 5.43 0.18 5.43 3.64 0.5 10.71 0.5"/><line class="cls-2" x1="10.71" y1="0.5" x2="7.17" y2="5.43"/><line class="cls-2" x1="17.77" y1="0.5" x2="14.23" y2="5.43"/><line class="cls-2" x1="24.83" y1="0.5" x2="21.3" y2="5.43"/><line class="cls-2" x1="31.89" y1="0.5" x2="28.36" y2="5.43"/><polyline class="cls-3" points="39.02 0.5 38.85 0.5 35.39 5.43"/><polyline class="cls-3" points="3.39 0.5 3.64 0.5 10.71 0.5 17.77 0.5 24.83 0.5 31.89 0.5 38.85 0.5"/><polyline class="cls-3" points="0 5.43 0.18 5.43 3.64 0.5"/><polyline class="cls-3" points="35.69 5.43 35.39 5.43 28.36 5.43 21.3 5.43 14.23 5.43 7.17 5.43 0.18 5.43"/></g></g></g></g></svg>