<svg xmlns="http://www.w3.org/2000/svg" viewBox="0 0 39.12 5.91"><defs><style>.cls-1{fill:#ffaa10;}.cls-2,.cls-3{fill:none;stroke:#1d1d1b;stroke-miterlimit:10;}.cls-2{stroke-width:0.5px;}</style></defs><g id="Layer_2" data-name="Layer 2"><g id="Layer_1-2" data-name="Layer 1"><g id="Page_1" data-name="Page 1"><g id="Page_5" data-name="Page 5"><polygon class="cls-1" points="38.95 0.5 35.48 5.41 28.43 5.41 31.97 0.5 38.95 0.5"/><polygon class="cls-1" points="31.97 0.5 28.43 5.41 21.36 5.41 24.89 0.5 31.97 0.5"/><polygon class="cls-1" points="24.89 0.5 21.36 5.41 14.27 5.41 17.81 0.5 24.89 0.5"/><polygon class="cls-1" points="17.81 0.5 14.27 5.41 7.19 5.41 10.73 0.5 17.81 0.5"/><polygon class="cls-1" points="10.73 0.5 7.19 5.41 0.19 5.41 3.65 0.5 10.73 0.5"/><line class="cls-2" x1="10.73" y1="0.5" x2="7.19" y2="5.41"/><line class="cls-2" x1="17.81" y1="0.5" x2="14.27" y2="5.41"/><line class="cls-2" x1="24.89" y1="0.5" x2="21.35" y2="5.41"/><line class="cls-2" x1="31.97" y1="0.5" x2="28.43" y2="5.41"/><polyline class="cls-3" points="39.12 0.5 38.95 0.5 35.48 5.41"/><polyline class="cls-3" points="3.4 0.5 3.65 0.5 10.73 0.5 17.81 0.5 24.89 0.5 31.97 0.5 38.95 0.5"/><polyline class="cls-3" points="0 5.41 0.19 5.41 3.65 0.5"/><polyline class="cls-3" points="35.78 5.41 35.48 5.41 28.43 5.41 21.36 5.41 14.27 5.41 7.19 5.41 0.19 5.41"/></g></g></g></g></svg>