<svg xmlns="http://www.w3.org/2000/svg" viewBox="0 0 39.01 5.92"><defs><style>.cls-1{fill:#ffaa10;}.cls-2,.cls-3{fill:none;stroke:#1d1d1b;stroke-miterlimit:10;}.cls-2{stroke-width:0.5px;}</style></defs><g id="Layer_2" data-name="Layer 2"><g id="Layer_1-2" data-name="Layer 1"><g id="Page_1" data-name="Page 1"><g id="Page_2" data-name="Page 2"><polygon class="cls-1" points="38.83 0.5 35.37 5.42 28.34 5.42 31.88 0.5 38.83 0.5"/><polygon class="cls-1" points="31.88 0.5 28.34 5.42 21.29 5.42 24.82 0.5 31.88 0.5"/><polygon class="cls-1" points="24.82 0.5 21.29 5.42 14.23 5.42 17.75 0.5 24.82 0.5"/><polygon class="cls-1" points="17.75 0.5 14.23 5.42 7.17 5.42 10.7 0.5 17.75 0.5"/><polygon class="cls-1" points="10.7 0.5 7.17 5.42 0.18 5.42 3.64 0.5 10.7 0.5"/><line class="cls-2" x1="10.7" y1="0.5" x2="7.17" y2="5.42"/><line class="cls-2" x1="17.75" y1="0.5" x2="14.23" y2="5.42"/><line class="cls-2" x1="24.82" y1="0.5" x2="21.29" y2="5.42"/><line class="cls-2" x1="31.88" y1="0.5" x2="28.34" y2="5.42"/><polyline class="cls-3" points="39.01 0.5 38.83 0.5 35.37 5.42"/><polyline class="cls-3" points="3.38 0.5 3.64 0.5 10.7 0.5 17.75 0.5 24.82 0.5 31.88 0.5 38.83 0.5"/><polyline class="cls-3" points="0 5.42 0.18 5.42 3.64 0.5"/><polyline class="cls-3" points="35.67 5.42 35.37 5.42 28.34 5.42 21.29 5.42 14.23 5.42 7.17 5.42 0.18 5.42"/></g></g></g></g></svg>