<svg xmlns="http://www.w3.org/2000/svg" viewBox="0 0 38.9 5.93"><defs><style>.cls-1{fill:#ffaa10;}.cls-2,.cls-3{fill:none;stroke:#1d1d1b;stroke-miterlimit:10;}.cls-2{stroke-width:0.5px;}</style></defs><g id="Layer_2" data-name="Layer 2"><g id="Layer_1-2" data-name="Layer 1"><g id="Page_1" data-name="Page 1"><g id="Page_6" data-name="Page 6"><polygon class="cls-1" points="38.73 0.5 35.28 5.43 28.27 5.43 31.79 0.5 38.73 0.5"/><polygon class="cls-1" points="28.27 5.43 21.23 5.43 24.75 0.5 31.79 0.5 28.27 5.43"/><polygon class="cls-1" points="24.75 0.5 21.23 5.43 14.19 5.43 17.71 0.5 24.75 0.5"/><polygon class="cls-1" points="17.71 0.5 14.19 5.43 7.15 5.43 10.67 0.5 17.71 0.5"/><polygon class="cls-1" points="10.67 0.5 7.15 5.43 0.18 5.43 3.63 0.5 10.67 0.5"/><line class="cls-2" x1="10.67" y1="0.5" x2="7.15" y2="5.43"/><line class="cls-2" x1="17.71" y1="0.5" x2="14.19" y2="5.43"/><line class="cls-2" x1="24.75" y1="0.5" x2="21.23" y2="5.43"/><line class="cls-2" x1="31.79" y1="0.5" x2="28.27" y2="5.43"/><polyline class="cls-3" points="38.91 0.5 38.73 0.5 35.28 5.43"/><polyline class="cls-3" points="3.38 0.5 3.63 0.5 10.67 0.5 17.71 0.5 24.75 0.5 31.79 0.5 38.73 0.5"/><polyline class="cls-3" points="0 5.43 0.18 5.43 3.63 0.5"/><polyline class="cls-3" points="35.58 5.43 35.28 5.43 28.27 5.43 21.23 5.43 14.19 5.43 7.15 5.43 0.18 5.43"/></g></g></g></g></svg>