<svg xmlns="http://www.w3.org/2000/svg" viewBox="0 0 39.09 5.87"><defs><style>.cls-1{fill:#98f5ff;}.cls-2,.cls-3{fill:none;stroke:#1d1d1b;stroke-miterlimit:10;}.cls-2{stroke-width:0.5px;}</style></defs><g id="Layer_2" data-name="Layer 2"><g id="Layer_1-2" data-name="Layer 1"><g id="Page_1" data-name="Page 1"><g id="Page_3" data-name="Page 3"><polygon class="cls-1" points="31.94 0.5 28.4 5.37 21.33 5.37 24.87 0.5 31.94 0.5"/><polygon class="cls-1" points="24.87 0.5 21.33 5.37 14.26 5.37 17.8 0.5 24.87 0.5"/><polygon class="cls-1" points="17.8 0.5 14.26 5.37 7.18 5.37 10.72 0.5 17.8 0.5"/><polygon class="cls-1" points="10.72 0.5 7.18 5.37 0.19 5.37 3.65 0.5 10.72 0.5"/><line class="cls-2" x1="10.72" y1="0.5" x2="7.19" y2="5.37"/><line class="cls-2" x1="17.8" y1="0.5" x2="14.26" y2="5.37"/><line class="cls-2" x1="24.87" y1="0.5" x2="21.33" y2="5.37"/><line class="cls-2" x1="31.94" y1="0.5" x2="28.4" y2="5.37"/><polyline class="cls-3" points="39.09 0.5 38.91 0.5 35.45 5.37"/><polyline class="cls-3" points="3.39 0.5 3.65 0.5 10.72 0.5 17.8 0.5 24.87 0.5 31.94 0.5 38.91 0.5"/><polyline class="cls-3" points="0 5.37 0.19 5.37 3.65 0.5"/><polyline class="cls-3" points="35.75 5.37 35.45 5.37 28.4 5.37 21.33 5.37 14.26 5.37 7.18 5.37 0.19 5.37"/></g></g></g></g></svg>